<svg xmlns="http://www.w3.org/2000/svg" height="48" viewBox="0 96 960 960" width="48"><path d="M480.22 550.654q22.511 0 38.915-16.182t16.404-38.692q0-22.511-16.366-38.915t-39.135-16.404q-22.769 0-38.73 16.366-15.962 16.366-15.962 39.135t16.182 38.73q16.182 15.962 38.692 15.962ZM480 918.5q129.425-112.994 199.693-224.968 70.268-111.974 70.268-189.291 0-122.108-77.428-200.155t-192.496-78.047q-115.069 0-192.091 78.079-77.023 78.079-77.023 200.296 0 77.388 70.557 189.24T480 918.5Zm0 41.269q-151.269-133.807-225.269-248.97-74-115.164-74-206.853 0-140.786 90.548-224.443 90.548-83.657 208.846-83.657t209.164 83.666q90.865 83.666 90.865 224.521 0 91.506-74.442 206.717Q631.269 825.962 480 959.769ZM480 504Z"/></svg>